<?xml version="1.0" encoding="utf-8"?>
<!-- Generator: Adobe Illustrator 22.0.1, SVG Export Plug-In . SVG Version: 6.00 Build 0)  -->
<svg version="1.1" id="Layer_1" xmlns="http://www.w3.org/2000/svg" xmlns:xlink="http://www.w3.org/1999/xlink" x="0px" y="0px"
	 viewBox="0 0 531 552" style="enable-background:new 0 0 531 552;" xml:space="preserve" aria-labelledby="git-title" role="img">
<title id="git-title">GitHub logo</title>
<style type="text/css">
	.rule1{fill-rule:evenodd;clip-rule:evenodd;fill:#191717;}
	.rule2{fill:#191717;}
</style>
<g>
	<path class="rule1" d="M265.2,11.5C118.8,11.5,0,130.3,0,276.8C0,394,76,493.4,181.4,528.4c13.3,2.5,18.1-5.8,18.1-12.8
		c0-6.3-0.2-27.2-0.4-49.4c-73.8,16-89.4-31.3-89.4-31.3c-12.1-30.7-29.4-38.8-29.4-38.8c-24.1-16.5,1.8-16.1,1.8-16.1
		c26.6,1.9,40.7,27.3,40.7,27.3c23.7,40.5,62,28.8,77.2,22c2.4-17.1,9.3-28.8,16.8-35.5C157.9,387.3,96,364.5,96,262.9
		c0-29,10.4-52.6,27.3-71.2c-2.8-6.7-11.8-33.7,2.6-70.2c0,0,22.3-7.1,73,27.2c21.2-5.9,43.8-8.8,66.4-8.9c22.5,0.1,45.2,3,66.4,8.9
		c50.6-34.3,72.9-27.2,72.9-27.2c14.4,36.5,5.4,63.5,2.6,70.2c17,18.6,27.3,42.2,27.3,71.2c0,101.9-62,124.3-121.1,130.9
		c9.5,8.2,18,24.4,18,49.1c0,35.5-0.3,64.1-0.3,72.8c0,7.1,4.8,15.3,18.2,12.7c105.3-35.1,181.2-134.5,181.2-251.6
		C530.5,130.3,411.7,11.5,265.2,11.5z"/>
	<path class="rule2" d="M100.5,392.4c-0.6,1.3-2.7,1.7-4.5,0.8c-1.9-0.9-3-2.7-2.4-4c0.6-1.4,2.6-1.7,4.6-0.8
		C100,389.2,101.1,391,100.5,392.4L100.5,392.4z M97.2,389.9"/>
	<path class="rule2" d="M111.2,404.3c-1.3,1.2-3.7,0.6-5.4-1.2c-1.7-1.8-2.1-4.3-0.8-5.5c1.3-1.2,3.7-0.6,5.4,1.2
		C112.2,400.7,112.5,403.1,111.2,404.3L111.2,404.3z M108.7,401.6"/>
	<path class="rule2" d="M121.7,419.6c-1.6,1.1-4.3,0.1-5.9-2.3c-1.6-2.4-1.6-5.2,0-6.3c1.6-1.1,4.3-0.1,5.9,2.2
		C123.3,415.6,123.3,418.5,121.7,419.6L121.7,419.6z M121.7,419.6"/>
	<path class="rule2" d="M136,434.4c-1.5,1.6-4.6,1.2-6.8-1c-2.3-2.1-3-5.2-1.5-6.8c1.5-1.6,4.6-1.2,6.9,1
		C136.8,429.7,137.5,432.8,136,434.4L136,434.4z M136,434.4"/>
	<path class="rule2" d="M155.8,442.9c-0.6,2.1-3.6,3-6.6,2.1c-3-0.9-5-3.3-4.4-5.4c0.6-2.1,3.6-3.1,6.6-2.1
		C154.4,438.4,156.4,440.8,155.8,442.9L155.8,442.9z M155.8,442.9"/>
	<path class="rule2" d="M177.5,444.5c0.1,2.2-2.5,4-5.6,4c-3.2,0.1-5.7-1.7-5.8-3.9c0-2.2,2.5-4,5.7-4.1
		C174.9,440.6,177.5,442.4,177.5,444.5L177.5,444.5z M177.5,444.5"/>
	<path class="rule2" d="M197.7,441.1c0.4,2.1-1.8,4.3-4.9,4.9c-3.1,0.6-5.9-0.8-6.3-2.9c-0.4-2.2,1.8-4.4,4.9-4.9
		C194.4,437.6,197.3,438.9,197.7,441.1L197.7,441.1z M197.7,441.1"/>
</g>
</svg>
