<?xml version="1.0" encoding="utf-8"?>
<!-- Generator: Adobe Illustrator 22.0.1, SVG Export Plug-In . SVG Version: 6.00 Build 0)  -->
<svg version="1.1" id="Layer_1" xmlns="http://www.w3.org/2000/svg" xmlns:xlink="http://www.w3.org/1999/xlink" x="0px" y="0px"
	 viewBox="0 0 192 192" style="enable-background:new 0 0 192 192;" xml:space="preserve">
<style type="text/css">
	.st0{fill:#FF0000;}
</style>
<path class="st0" d="M188,55.9c-2.2-8.3-8.7-14.9-17-17.1c-15-4-75-4-75-4s-60,0-75,4C12.7,41,6.2,47.5,4,55.9
	c-4,15.1-4,46.5-4,46.5s0,31.4,4,46.5c2.2,8.3,8.7,14.9,17,17.1c15,4,75,4,75,4s60,0,75-4c8.3-2.2,14.8-8.8,17-17.1
	c4-15.1,4-46.5,4-46.5S192,70.9,188,55.9z M76.4,130.9V73.8l50.2,28.5L76.4,130.9z"/>
</svg>
